<svg xmlns="http://www.w3.org/2000/svg" viewBox="0 0 100 100">
  <path fill="#21313f" stroke="#00e5ff" stroke-width="5"
        d="M85.338,26.884H70.65v-1.112c0-5.436-4.447-9.883-9.883-9.883H38.194c-5.436,0-9.883,4.447-9.883,9.883  v1.112h-13.65C9.348,26.884,5,31.231,5,36.545v37.904c0,5.314,4.348,9.662,9.662,9.662h23.533h22.573h24.57  c5.314,0,9.662-4.348,9.662-9.662V36.545C95,31.231,90.652,26.884,85.338,26.884z M49.484,70.48  c-8.542,0-15.461-6.913-15.461-15.448c0-8.536,6.919-15.449,15.461-15.449c8.529,0,15.448,6.913,15.448,15.449  C64.933,63.567,58.014,70.48,49.484,70.48z"/>
</svg>
